<svg id="Layer_1" data-name="Layer 1" xmlns="http://www.w3.org/2000/svg" viewBox="0 0 722.07 283.03"><title>logo_dott</title><circle cx="35.62" cy="277.74" r="5"/><circle cx="5" cy="277.74" r="5"/><circle cx="5" cy="241.97" r="5"/><path d="M343.83,282.74a87.5,87.5,0,1,1,87.5-87.5A87.6,87.6,0,0,1,343.83,282.74Zm0-169a81.49,81.49,0,1,0,81.48,81.48A81.57,81.57,0,0,0,343.83,113.76Z"/><path d="M205.42,189.46V0h-6V162.9a87.49,87.49,0,1,0,6.2,32.34C205.62,193.3,205.55,191.37,205.42,189.46Zm-87.3,87.27a81.49,81.49,0,1,1,81.31-86.67v7.78h.11A81.57,81.57,0,0,1,118.12,276.73Z"/><polygon points="578.94 114.25 520.58 114.25 520.58 56.46 514.58 56.46 514.58 114.25 470.94 114.25 470.94 120.25 514.58 120.25 514.58 283.03 520.58 283.03 520.58 120.25 578.94 120.25 578.94 114.25"/><polygon points="722.07 114.25 663.71 114.25 663.71 56.46 657.71 56.46 657.71 114.25 614.07 114.25 614.07 120.25 657.71 120.25 657.71 283.03 663.71 283.03 663.71 120.25 722.07 120.25 722.07 114.25"/></svg>